<?xml version="1.0" standalone="no"?>
<!DOCTYPE svg PUBLIC "-//W3C//DTD SVG 20010904//EN"
 "http://www.w3.org/TR/2001/REC-SVG-20010904/DTD/svg10.dtd">
<svg version="1.0" xmlns="http://www.w3.org/2000/svg"
 width="579.000000pt" height="584.000000pt" viewBox="0 0 579.000000 584.000000"
 preserveAspectRatio="xMidYMid meet">

<g transform="translate(0.000000,584.000000) scale(0.100000,-0.100000)"
fill="#000000" stroke="none">
<path d="M0 2920 l0 -2920 2895 0 2895 0 0 2920 0 2920 -2895 0 -2895 0 0
-2920z m3012 2310 c-2 -85 -6 -189 -10 -230 l-7 -75 -203 -3 c-157 -2 -203 0
-207 10 -7 22 -43 433 -38 438 4 4 412 18 453 15 13 0 15 -23 12 -155z m765
-37 c120 -47 219 -87 221 -89 4 -3 -186 -383 -200 -401 -7 -9 -37 0 -116 33
-59 25 -142 59 -184 76 -61 24 -78 35 -78 51 0 16 63 253 106 400 3 9 12 17
19 17 8 0 113 -39 232 -87z m-1733 69 c3 -5 35 -100 71 -212 52 -163 63 -207
53 -216 -7 -6 -74 -38 -148 -70 -74 -32 -151 -66 -170 -75 -23 -12 -39 -14
-47 -7 -6 5 -37 55 -69 111 -31 56 -76 136 -100 178 -24 42 -44 83 -44 91 0
10 71 46 218 111 237 104 229 101 236 89z m2565 -618 c94 -92 171 -170 171
-175 0 -13 -328 -284 -344 -284 -12 0 -296 270 -296 282 0 1 21 29 48 61 26
32 88 109 137 170 50 61 95 111 102 112 7 0 89 -75 182 -166z m-3300 -43 c72
-91 131 -171 131 -178 0 -17 -250 -278 -266 -278 -13 0 -354 266 -354 275 1 3
35 41 76 85 186 196 257 266 269 263 7 -2 72 -77 144 -167z m3762 -582 c6 -12
51 -113 99 -225 64 -147 85 -206 77 -212 -14 -11 -396 -122 -419 -122 -9 0
-21 15 -28 33 -8 17 -40 96 -72 174 -32 78 -58 146 -58 152 0 5 30 28 68 49
102 60 306 171 314 172 4 0 12 -10 19 -21z m-4321 -129 c110 -55 200 -103 200
-108 0 -10 -141 -365 -149 -374 -6 -7 -417 104 -428 116 -3 3 32 105 77 228
84 229 88 238 96 238 2 0 94 -45 204 -100z m2921 -384 c107 -104 420 -412 697
-685 277 -273 507 -497 511 -499 17 -6 81 325 81 419 0 27 6 51 14 58 9 8 77
11 222 9 l209 -3 -2 -90 c-8 -319 -103 -693 -253 -1000 -168 -345 -394 -619
-719 -873 -344 -269 -728 -438 -1171 -514 -171 -30 -575 -32 -750 -5 -325 51
-626 158 -907 323 -631 371 -1037 913 -1198 1598 -41 176 -75 420 -75 541 l0
55 215 0 215 0 4 -22 c2 -13 11 -79 20 -148 27 -205 102 -494 153 -594 l15
-29 42 44 c22 24 99 107 171 184 71 77 202 217 291 310 88 94 236 251 328 350
93 99 174 181 181 183 7 2 25 -12 40 -30 58 -70 435 -458 445 -458 4 0 19 14
33 32 15 17 59 66 99 107 40 42 107 112 148 156 41 44 111 119 155 165 44 47
190 204 325 348 134 145 250 261 256 260 7 -2 99 -88 205 -192z"/>
<path d="M3349 2883 c-69 -71 -186 -191 -260 -268 -74 -77 -178 -186 -233
-242 -67 -70 -96 -106 -90 -115 8 -13 34 -42 180 -197 110 -118 144 -158 144
-169 0 -11 -299 -303 -309 -301 -5 0 -375 399 -615 661 -21 24 -68 74 -103
113 l-65 70 -86 -90 c-95 -99 -512 -533 -635 -661 l-78 -81 42 -54 c64 -83
284 -297 378 -368 244 -185 488 -299 783 -365 457 -102 1009 -34 1432 176 187
93 340 204 500 364 128 129 316 379 316 422 0 6 -55 68 -122 139 -67 70 -203
213 -303 318 -158 167 -386 406 -654 688 -46 48 -87 87 -91 87 -3 0 -63 -57
-131 -127z"/>
</g>
</svg>
